# Alias OBJ Model File
# Exported from SketchUp, (c) 2000-2012 Trimble Navigation Limited
# File units = meters

mtllib pyramid.mtl

g Mesh1 Group1 Model

usemtl FrontColor
v 0.495272 4.51195e-16 0.500494
vt 39.3701 35.2137
vn 0 0.342874 0.939381
v -0.00472828 0.73 0.000494284
vt 19.685 79.2308
v -0.504728 4.51195e-16 0.500494
vt 0 35.2137
f 1/1/1 2/2/1 3/3/1

v 0.495272 4.51195e-16 -0.499506
vt 39.3701 17.6068
vn 0.939381 0.342874 -0
vt 19.685 61.6239
vt 0 17.6068
f 4/4/2 2/5/2 1/6/2

v -0.504728 4.51195e-16 -0.499506
vn 0 0.342874 -0.939381
vt -19.685 61.6239
vt -39.3701 17.6068
f 5/6/3 2/7/3 4/8/3

vt -19.685 79.2308
vn -0.939381 0.342874 -0
vt -39.3701 35.2137
f 2/9/4 5/10/4 3/3/4

vt -39.3701 0
vn 0 -1 -0
vt 0 0
vt 0 39.3701
vt -39.3701 39.3701
f 1/11/5 3/12/5 5/13/5 4/14/5 

vn -3.445e-17 -0.342874 0.939381
v -0.00472828 -0.73 0.000494284
vt 19.685 -8.80342
f 1/1/6 3/3/6 6/15/6

vn -0.939381 -0.342874 -0
vt -19.685 -8.80342
f 5/10/7 6/16/7 3/3/7

vt -39.3701 52.8205
vn -3.445e-17 -0.342874 -0.939381
vt -19.685 8.80342
vt -1.44382e-15 52.8205
f 4/17/8 6/18/8 5/19/8

vt 19.685 8.80342
vn 0.939381 -0.342874 -0
vt 39.3701 52.8205
vt 0 52.8205
f 6/20/9 4/21/9 1/22/9

