####
#
# OBJ File Generated by Meshlab
#
####
# Object pyramid.obj
#
# Vertices: 6
# Faces: 10
#
####
mtllib pyramid.mtl

vn 1.460000 -2.000000 1.460000
v 0.495272 0.000000 0.500494 0.752941 0.752941 0.752941
vn 0.000000 2.000000 0.000000
v -0.004728 0.730000 0.000494 0.752941 0.752941 0.752941
vn -1.460000 -1.000000 1.460000
v -0.504728 0.000000 0.500494 0.752941 0.752941 0.752941
vn 1.460000 -1.000000 -1.460000
v 0.495272 0.000000 -0.499506 0.752941 0.752941 0.752941
vn -1.460000 -2.000000 -1.460000
v -0.504728 0.000000 -0.499506 0.752941 0.752941 0.752941
vn 0.000000 -2.000000 0.000000
v -0.004728 -0.730000 0.000494 0.752941 0.752941 0.752941
# 6 vertices, 0 vertices normals


usemtl material_0
vt 39.370098 35.213699
vt 19.684999 79.230797
vt 0.000000 35.213699
f 1/1/1 2/2/2 3/3/3
vt 39.370098 17.606800
vt 19.684999 61.623901
vt 0.000000 17.606800
f 4/4/4 2/5/2 1/6/1
vt -19.684999 61.623901
vt -39.370098 17.606800
f 5/6/5 2/7/2 4/8/4
vt -19.684999 79.230797
vt -39.370098 35.213699
f 2/9/2 5/10/5 3/3/3
vt -39.370098 0.000000
vt 0.000000 0.000000
vt 0.000000 39.370098
f 1/11/1 3/12/3 5/13/5
vt -39.370098 39.370098
f 1/11/1 5/13/5 4/14/4
vt 19.684999 -8.803420
f 1/1/1 3/3/3 6/15/6
vt -19.684999 -8.803420
f 5/10/5 6/16/6 3/3/3
vt -39.370098 52.820499
vt -19.684999 8.803420
vt -0.000000 52.820499
f 4/17/4 6/18/6 5/19/5
vt 19.684999 8.803420
vt 39.370098 52.820499
vt 0.000000 52.820499
f 6/20/6 4/21/4 1/22/1
# 10 faces, 22 coords texture

# End of File
